<?xml version="1.0" encoding="iso-8859-1"?>
<!-- Generator: Adobe Illustrator 19.0.0, SVG Export Plug-In . SVG Version: 6.00 Build 0)  -->
<svg version="1.1" id="Layer_1" xmlns="http://www.w3.org/2000/svg" xmlns:xlink="http://www.w3.org/1999/xlink" x="0px" y="0px"
	 viewBox="0 0 512 512" style="enable-background:new 0 0 512 512;" xml:space="preserve">
<path style="fill:#FFC61B;" d="M156.747,476.896c-9.848,0-24.224-4.823-56.16-40.563c-16.232-18.165-29.534-36.033-30.093-36.785
	c-0.376-0.507-0.717-1.037-1.025-1.588c-6.071-10.932-9.281-23.32-9.281-35.827v-90.892c0-7.925,6.426-14.35,14.35-14.35h116.075
	c16.624,0,32.305,6.421,44.155,18.082l59.435,58.483c17.218,17.218,17.218,45.101,0.083,62.237
	c-0.026,0.024-0.146,0.145-0.171,0.169c-8.227,8.227-19.264,12.798-31.002,12.798c-11.741,0-22.777-4.572-31.078-12.873
	l-59.37-59.37c-5.842-0.044-15.288-0.088-22.839-0.122l-11.117-0.053c-7.925-0.042-14.317-6.499-14.275-14.424
	c0.042-7.899,6.459-14.275,14.348-14.275c0.026,0,0.05,0,0.076,0l11.099,0.053c6.754,0.03,13.946,0.063,19.458,0.099
	c2.781,0.017,5.139,0.036,6.806,0.055c3.978,0.044,8.486,0.095,12.656,4.295l63.451,63.45c2.88,2.881,6.71,4.467,10.785,4.467
	c4.074,0,7.904-1.586,10.784-4.467c0.026-0.026,0.146-0.145,0.171-0.169c5.872-5.872,5.872-15.548-0.075-21.496l-59.353-58.403
	c-6.447-6.344-14.978-9.838-24.024-9.838H88.889v76.542c0,7.337,1.808,14.609,5.235,21.088c2.615,3.468,13.586,17.86,26.469,32.423
	c25.478,28.797,35.213,32.208,36.505,32.554l155.149-0.03c10.574,0,22.902-5.538,34.621-11.21
	c9.893-4.786,83.334-54.602,127.304-84.877c0.24-0.165,0.485-0.323,0.735-0.474c8.199-4.938,10.853-15.631,5.913-23.833
	c-2.391-3.971-6.189-6.773-10.689-7.891c-4.415-1.096-8.99-0.441-12.91,1.842l-107.186,71.082
	c-6.602,4.379-15.511,2.574-19.889-4.028c-4.381-6.605-2.577-15.51,4.029-19.89l107.483-71.28c0.172-0.115,0.349-0.225,0.527-0.333
	c10.538-6.348,22.922-8.211,34.861-5.248c11.942,2.965,22.014,10.402,28.362,20.94c13.018,21.623,6.146,49.766-15.285,62.975
	c-13.296,9.152-115.77,79.597-130.749,86.847c-14.717,7.122-30.477,14.076-47.121,14.076l-155.498,0.032
	C156.752,476.896,156.748,476.896,156.747,476.896z"/>
<rect x="14.35" y="253.616" style="fill:#FEE187;" width="84.146" height="189.587"/>
<path style="fill:#FFC61B;" d="M98.491,457.546H14.35c-7.924,0-14.35-6.424-14.35-14.35V253.615c0-7.925,6.426-14.35,14.35-14.35
	h84.142c7.924,0,14.35,6.424,14.35,14.35v189.581C112.841,451.122,106.415,457.546,98.491,457.546z M28.699,428.847h55.443V267.965
	H28.699V428.847z"/>
<path style="fill:#FEE187;" d="M431.473,110.99c-0.674-2.131-1.429-4.23-2.264-6.291c-1.114-2.748-2.369-5.43-3.761-8.037
	c-0.696-1.304-1.428-2.589-2.193-3.856c-1.531-2.531-3.197-4.985-4.997-7.353c-3.15-4.143-6.706-8.021-10.649-11.592
	c-17.387-15.74-40.98-24.407-66.432-24.407c-25.452,0-49.043,8.669-66.432,24.407c-18.029,16.32-27.957,39.084-27.957,64.098
	c0,39.174,16.265,55.024,29.336,67.757c9.042,8.809,16.297,14.945,18.126,28.966h46.928h46.916
	c1.798-14.282,9.092-20.348,18.2-29.19c3.26-3.166,6.72-6.525,10.076-10.393c1.677-1.934,3.329-3.996,4.918-6.226
	c0.397-0.557,0.791-1.125,1.178-1.703c1.165-1.736,2.289-3.572,3.355-5.525c0.356-0.65,0.705-1.314,1.046-1.992
	c5.133-10.158,8.699-23.361,8.699-41.696C435.565,128.58,434.169,119.516,431.473,110.99z"/>
<g>
	<path style="fill:#FFC61B;" d="M388.092,249.033h-93.844c-7.206,0-13.298-5.347-14.229-12.494
		c-1.006-7.713-3.889-10.845-12.075-18.765l-1.834-1.779c-13.41-13.064-33.673-32.808-33.673-78.035
		c0-29.118,11.605-55.661,32.677-74.737c20.031-18.134,47.044-28.12,76.062-28.12c29.018,0,56.031,9.986,76.062,28.12
		c4.569,4.136,8.755,8.693,12.444,13.546c2.089,2.748,4.061,5.647,5.853,8.613c0.877,1.449,1.745,2.973,2.569,4.516
		c1.619,3.026,3.101,6.193,4.404,9.408c0.969,2.392,1.86,4.866,2.647,7.356c3.158,9.989,4.76,20.519,4.76,31.297
		c0,18.774-3.351,34.529-10.243,48.167c-0.413,0.818-0.835,1.622-1.267,2.409c-1.225,2.246-2.584,4.481-4.031,6.634
		c-0.458,0.684-0.927,1.36-1.401,2.025c-1.771,2.485-3.658,4.875-5.77,7.31c-3.755,4.331-7.562,8.024-10.917,11.285l-1.947,1.881
		c-8.153,7.849-11.023,10.962-12.009,18.804C401.426,243.652,395.325,249.033,388.092,249.033z M305.325,220.334h71.623
		c4.029-10.383,10.841-16.941,17.485-23.337l1.863-1.798c3.087-2.996,6.279-6.094,9.231-9.498c1.512-1.742,2.843-3.427,4.074-5.153
		c0.316-0.442,0.631-0.9,0.946-1.368c0.964-1.436,1.865-2.919,2.681-4.413c0.286-0.524,0.563-1.048,0.831-1.581
		c4.816-9.532,7.158-21.054,7.158-35.225c0-7.838-1.152-15.456-3.425-22.644c-0.563-1.775-1.194-3.533-1.881-5.228
		c-0.924-2.279-1.973-4.52-3.118-6.663c-0.585-1.095-1.194-2.165-1.812-3.186c-1.276-2.108-2.666-4.156-4.146-6.099
		c-2.622-3.451-5.601-6.693-8.858-9.642c-14.743-13.347-34.915-20.696-56.802-20.696c-21.886,0-42.059,7.35-56.802,20.696
		c-14.985,13.566-23.238,32.552-23.238,53.459c0,33.122,12.709,45.504,25.001,57.48l1.762,1.708
		C294.506,203.541,301.28,210.094,305.325,220.334z"/>
	<path style="fill:#FFC61B;" d="M341.176,249.033c-7.924,0-14.35-6.424-14.35-14.35V184.11c0-7.925,6.426-14.35,14.35-14.35
		s14.35,6.424,14.35,14.35v50.574C355.526,242.609,349.1,249.033,341.176,249.033z"/>
	<path style="fill:#FFC61B;" d="M341.176,201.184c-3.673,0-7.344-1.401-10.147-4.203l-33.221-33.221
		c-5.604-5.604-5.604-14.69,0-20.293c5.605-5.604,14.688-5.605,20.295,0l23.074,23.074l23.074-23.074
		c5.606-5.602,14.69-5.604,20.295,0c5.605,5.604,5.604,14.69,0,20.293l-33.221,33.221
		C348.521,199.784,344.849,201.184,341.176,201.184z"/>
	<path style="fill:#FFC61B;" d="M359.667,302.122h-36.98c-24.186,0-43.864-19.678-43.864-43.865V231.65
		c0-7.925,6.426-14.35,14.35-14.35h95.409c7.924,0,14.35,6.424,14.35,14.35c0,7.925-6.426,14.35-14.35,14.35h-81.06v12.257
		c0,8.363,6.803,15.166,15.165,15.166h36.98c7.924,0,14.35,6.424,14.35,14.35C374.017,295.698,367.591,302.122,359.667,302.122z"/>
</g>
<g>
</g>
<g>
</g>
<g>
</g>
<g>
</g>
<g>
</g>
<g>
</g>
<g>
</g>
<g>
</g>
<g>
</g>
<g>
</g>
<g>
</g>
<g>
</g>
<g>
</g>
<g>
</g>
<g>
</g>
</svg>
